<?xml version="1.0" encoding="UTF-8" standalone="no"?>
<!-- Generator: Adobe Illustrator 19.0.0, SVG Export Plug-In . SVG Version: 6.00 Build 0)  -->

<svg
   xmlns:dc="http://purl.org/dc/elements/1.1/"
   xmlns:cc="http://creativecommons.org/ns#"
   xmlns:rdf="http://www.w3.org/1999/02/22-rdf-syntax-ns#"
   xmlns:svg="http://www.w3.org/2000/svg"
   xmlns="http://www.w3.org/2000/svg"
   xmlns:sodipodi="http://sodipodi.sourceforge.net/DTD/sodipodi-0.dtd"
   xmlns:inkscape="http://www.inkscape.org/namespaces/inkscape"
   version="1.1"
   id="Layer_1"
   x="0px"
   y="0px"
   viewBox="0 0 330 330"
   style="enable-background:new 0 0 330 330;"
   xml:space="preserve"
   sodipodi:docname="down-arrow-svgrepo-com.svg"
   inkscape:version="0.92.4 (5da689c313, 2019-01-14)"><metadata
   id="metadata889"><rdf:RDF><cc:Work
       rdf:about=""><dc:format>image/svg+xml</dc:format><dc:type
         rdf:resource="http://purl.org/dc/dcmitype/StillImage" /></cc:Work></rdf:RDF></metadata><defs
   id="defs887" /><sodipodi:namedview
   pagecolor="#ffffff"
   bordercolor="#666666"
   borderopacity="1"
   objecttolerance="10"
   gridtolerance="10"
   guidetolerance="10"
   inkscape:pageopacity="0"
   inkscape:pageshadow="2"
   inkscape:window-width="1920"
   inkscape:window-height="1017"
   id="namedview885"
   showgrid="false"
   inkscape:zoom="2.6212121"
   inkscape:cx="165"
   inkscape:cy="165"
   inkscape:window-x="-8"
   inkscape:window-y="-8"
   inkscape:window-maximized="1"
   inkscape:current-layer="Layer_1" />
<path
   id="XMLID_225_"
   d="M325.607,79.393c-5.857-5.857-15.355-5.858-21.213,0.001l-139.39,139.393L25.607,79.393  c-5.857-5.857-15.355-5.858-21.213,0.001c-5.858,5.858-5.858,15.355,0,21.213l150.004,150c2.813,2.813,6.628,4.393,10.606,4.393  s7.794-1.581,10.606-4.394l149.996-150C331.465,94.749,331.465,85.251,325.607,79.393z" />
<g
   id="g854">
</g>
<g
   id="g856">
</g>
<g
   id="g858">
</g>
<g
   id="g860">
</g>
<g
   id="g862">
</g>
<g
   id="g864">
</g>
<g
   id="g866">
</g>
<g
   id="g868">
</g>
<g
   id="g870">
</g>
<g
   id="g872">
</g>
<g
   id="g874">
</g>
<g
   id="g876">
</g>
<g
   id="g878">
</g>
<g
   id="g880">
</g>
<g
   id="g882">
</g>
<path
   style="fill:#000000;fill-opacity:0.00502513;stroke:none;stroke-width:1.30059445;stroke-miterlimit:4;stroke-dasharray:none;stroke-dashoffset:0;stroke-opacity:1"
   d="m 159.77053,253.77684 c -1.17661,-0.496 -2.63586,-1.26308 -3.24277,-1.70463 -0.60691,-0.44154 -35.54194,-35.27802 -77.63339,-77.41438 C -7.6883968,87.982655 0.53315582,96.881464 0.53535694,89.843931 c 0.001141,-3.647978 0.0985843,-4.198052 1.09092796,-6.158355 1.3573828,-2.681411 4.3572778,-5.666311 7.1101313,-7.074591 1.9068798,-0.975505 2.4636388,-1.073413 6.1040458,-1.073413 7.154796,0 -1.004994,-7.491422 79.179033,72.693488 38.808045,38.80846 70.730845,70.56085 70.939565,70.56085 0.20871,0 32.22652,-31.82034 71.15067,-70.71187 80.10787,-80.040716 71.94489,-72.542468 78.97351,-72.542468 3.62586,0 4.21447,0.102478 6.20621,1.080513 5.89937,2.896864 9.32152,9.373234 8.29279,15.693978 -0.85091,5.228193 4.28142,-0.172343 -78.9256,83.050147 -86.46918,86.48526 -78.35591,78.93797 -85.12254,79.18443 -3.13633,0.11424 -3.91229,0.0106 -5.76357,-0.7698 z"
   id="path891"
   inkscape:connector-curvature="0" /><path
   style="fill:#ffffff;fill-opacity:1;stroke:#000000;stroke-width:1.30059445;stroke-miterlimit:4;stroke-dasharray:none;stroke-dashoffset:0;stroke-opacity:1"
   d="m 159.77053,253.77684 c -1.17661,-0.496 -2.63586,-1.26308 -3.24277,-1.70463 -0.60691,-0.44154 -35.54194,-35.27802 -77.63339,-77.41438 C -7.6883968,87.982655 0.53315582,96.881464 0.53535694,89.843931 c 0.001141,-3.647978 0.0985843,-4.198052 1.09092796,-6.158355 1.3573828,-2.681411 4.3572778,-5.666311 7.1101313,-7.074591 1.9068798,-0.975505 2.4636388,-1.073413 6.1040458,-1.073413 7.154796,0 -1.004994,-7.491422 79.179033,72.693488 38.808045,38.80846 70.730845,70.56085 70.939565,70.56085 0.20871,0 32.22652,-31.82034 71.15067,-70.71187 80.10787,-80.040716 71.94489,-72.542468 78.97351,-72.542468 3.62586,0 4.21447,0.102478 6.20621,1.080513 5.89937,2.896864 9.32152,9.373234 8.29279,15.693978 -0.85091,5.228193 4.28142,-0.172343 -78.9256,83.050147 -86.46918,86.48526 -78.35591,78.93797 -85.12254,79.18443 -3.13633,0.11424 -3.91229,0.0106 -5.76357,-0.7698 z"
   id="path893"
   inkscape:connector-curvature="0" /></svg>